<svg width="23" height="23" viewBox="0 0 23 23" fill="none" xmlns="http://www.w3.org/2000/svg">
<g clip-path="url(#clip0_100_1722)">
<path d="M12.2954 2.08916C12.0457 1.97526 11.7744 1.91632 11.4999 1.91632C11.2255 1.91632 10.9542 1.97526 10.7045 2.08916L2.49161 5.82666C2.32156 5.90165 2.17697 6.02446 2.07547 6.18015C1.97396 6.33584 1.91992 6.51768 1.91992 6.70354C1.91992 6.88939 1.97396 7.07124 2.07547 7.22693C2.17697 7.38261 2.32156 7.50543 2.49161 7.58041L10.7141 11.3275C10.9638 11.4414 11.2351 11.5003 11.5095 11.5003C11.784 11.5003 12.0552 11.4414 12.3049 11.3275L20.5274 7.59C20.6975 7.51501 20.8421 7.3922 20.9436 7.23651C21.0451 7.08082 21.0991 6.89898 21.0991 6.71312C21.0991 6.52727 21.0451 6.34542 20.9436 6.18973C20.8421 6.03404 20.6975 5.91123 20.5274 5.83625L12.2954 2.08916Z" stroke="#57B4E0" stroke-width="2" stroke-linecap="round" stroke-linejoin="round"/>
<path d="M1.91675 11.5C1.9163 11.6833 1.96842 11.8629 2.06694 12.0175C2.16546 12.172 2.30624 12.2951 2.47258 12.3721L10.7143 16.1192C10.9627 16.2316 11.2322 16.2898 11.5049 16.2898C11.7776 16.2898 12.0471 16.2316 12.2955 16.1192L20.518 12.3817C20.6876 12.3054 20.8314 12.1815 20.9318 12.0249C21.0322 11.8684 21.0849 11.686 21.0834 11.5" stroke="#57B4E0" stroke-width="2" stroke-linecap="round" stroke-linejoin="round"/>
<path d="M1.91675 16.2917C1.9163 16.475 1.96842 16.6545 2.06694 16.8091C2.16546 16.9637 2.30624 17.0868 2.47258 17.1637L10.7143 20.9108C10.9627 21.0233 11.2322 21.0815 11.5049 21.0815C11.7776 21.0815 12.0471 21.0233 12.2955 20.9108L20.518 17.1733C20.6876 17.0971 20.8314 16.9731 20.9318 16.8166C21.0322 16.66 21.0849 16.4776 21.0834 16.2917" stroke="#57B4E0" stroke-width="2" stroke-linecap="round" stroke-linejoin="round"/>
</g>
<defs>
<clipPath id="clip0_100_1722">
<rect width="23" height="23" fill="white"/>
</clipPath>
</defs>
</svg>
