<svg width="35" height="30" viewBox="0 0 35 30" fill="none" xmlns="http://www.w3.org/2000/svg">
<g opacity="0.5" filter="url(#filter0_dd_92_375)">
<path d="M10 23.3333V23.2133C10 22.06 10 21.0013 10.116 20.1413C10.2427 19.1933 10.5427 18.1907 11.3667 17.368C12.1907 16.5427 13.1933 16.2427 14.14 16.1147C15.0013 16 16.06 16 17.2147 16H17.452C18.6067 16 19.6653 16 20.5253 16.116C21.4733 16.2427 22.476 16.5427 23.2987 17.3667C24.124 18.1907 24.424 19.1933 24.552 20.14C24.6653 20.9893 24.6667 22.028 24.6667 23.1627C28.0973 22.4293 30.6667 19.4133 30.6667 15.8027C30.6667 12.5093 28.524 9.70667 25.54 8.68667C25.116 4.92533 21.8867 2 17.968 2C13.76 2 10.3493 5.37067 10.3493 9.52933C10.3493 10.4493 10.516 11.3293 10.8213 12.1453C10.4567 12.0748 10.0861 12.0391 9.71467 12.0387C6.55867 12.04 4 14.568 4 17.6867C4 20.8053 6.55867 23.3333 9.71467 23.3333H10Z" fill="url(#paint0_linear_92_375)" shape-rendering="crispEdges"/>
</g>
<defs>
<filter id="filter0_dd_92_375" x="0" y="0" width="34.6667" height="29.3333" filterUnits="userSpaceOnUse" color-interpolation-filters="sRGB">
<feFlood flood-opacity="0" result="BackgroundImageFix"/>
<feColorMatrix in="SourceAlpha" type="matrix" values="0 0 0 0 0 0 0 0 0 0 0 0 0 0 0 0 0 0 127 0" result="hardAlpha"/>
<feOffset dy="1"/>
<feGaussianBlur stdDeviation="0.5"/>
<feComposite in2="hardAlpha" operator="out"/>
<feColorMatrix type="matrix" values="0 0 0 0 0 0 0 0 0 0 0 0 0 0 0 0 0 0 0.05 0"/>
<feBlend mode="normal" in2="BackgroundImageFix" result="effect1_dropShadow_92_375"/>
<feColorMatrix in="SourceAlpha" type="matrix" values="0 0 0 0 0 0 0 0 0 0 0 0 0 0 0 0 0 0 127 0" result="hardAlpha"/>
<feOffset dy="2"/>
<feGaussianBlur stdDeviation="2"/>
<feComposite in2="hardAlpha" operator="out"/>
<feColorMatrix type="matrix" values="0 0 0 0 0 0 0 0 0 0 0 0 0 0 0 0 0 0 0.08 0"/>
<feBlend mode="normal" in2="effect1_dropShadow_92_375" result="effect2_dropShadow_92_375"/>
<feBlend mode="normal" in="SourceGraphic" in2="effect2_dropShadow_92_375" result="shape"/>
</filter>
<linearGradient id="paint0_linear_92_375" x1="17.3333" y1="2" x2="17.3333" y2="23.3333" gradientUnits="userSpaceOnUse">
<stop stop-color="white"/>
<stop offset="1" stop-color="white" stop-opacity="0.8"/>
</linearGradient>
</defs>
</svg>
