<svg width="17" height="16" viewBox="0 0 17 16" fill="none" xmlns="http://www.w3.org/2000/svg">
<path d="M5.21826 13.2502V4.95306C5.21826 4.6264 5.31626 4.3079 5.49592 4.03841L7.72539 0.722804C8.07655 0.191981 8.95037 -0.183679 9.69352 0.0939824C10.4938 0.363477 11.0247 1.26179 10.8532 2.06211L10.4285 4.73256C10.3958 4.97756 10.4612 5.19805 10.6 5.36955C10.7388 5.52471 10.943 5.62271 11.1635 5.62271H14.5199C15.1651 5.62271 15.7204 5.88404 16.0471 6.34136C16.3574 6.78235 16.4146 7.35401 16.2104 7.93383L14.2014 14.0505C13.9483 15.0632 12.8458 15.888 11.7515 15.888H8.56654C8.01938 15.888 7.25173 15.7002 6.90057 15.349L5.85525 14.5405C5.45509 14.2384 5.21826 13.7566 5.21826 13.2502Z" fill="#57B4E0"/>
<path d="M2.62145 3.36075H1.7803C0.51449 3.36075 0 3.85074 0 5.05938V13.2749C0 14.4836 0.51449 14.9736 1.7803 14.9736H2.62145C3.88726 14.9736 4.40175 14.4836 4.40175 13.2749V5.05938C4.40175 3.85074 3.88726 3.36075 2.62145 3.36075Z" fill="#57B4E0"/>
</svg>
