<svg width="21" height="21" viewBox="0 0 21 21" fill="none" xmlns="http://www.w3.org/2000/svg">
<path d="M18.5761 5.41135C19.0608 4.92682 19.3331 4.26961 19.3332 3.5843C19.3333 2.89899 19.0611 2.24171 18.5766 1.75706C18.092 1.27241 17.4348 1.00009 16.7495 1C16.0642 0.999914 15.4069 1.27207 14.9223 1.7566L2.68844 13.9932C2.47561 14.2054 2.31821 14.4667 2.23011 14.754L1.01919 18.7433C0.995499 18.8226 0.99371 18.9068 1.01401 18.987C1.03431 19.0673 1.07595 19.1405 1.1345 19.1989C1.19306 19.2574 1.26634 19.2989 1.34659 19.3191C1.42683 19.3393 1.51104 19.3373 1.59027 19.3135L5.58052 18.1035C5.8676 18.0162 6.12885 17.8598 6.34136 17.6479L18.5761 5.41135Z" stroke="white" stroke-width="2" stroke-linecap="round" stroke-linejoin="round"/>
</svg>
