<svg width="24" height="24" viewBox="0 0 24 24" fill="none" xmlns="http://www.w3.org/2000/svg">
<path fill-rule="evenodd" clip-rule="evenodd" d="M14.615 1.595C14.7614 1.67649 14.8763 1.80468 14.9413 1.9591C15.0064 2.11352 15.0179 2.28529 14.974 2.447L12.982 9.75H20.25C20.3961 9.75 20.5391 9.79272 20.6613 9.87289C20.7835 9.95307 20.8796 10.0672 20.9378 10.2013C20.9961 10.3353 21.0138 10.4835 20.989 10.6275C20.9641 10.7716 20.8977 10.9052 20.798 11.012L10.298 22.262C10.1836 22.3848 10.0313 22.4657 9.86558 22.4917C9.69981 22.5178 9.53009 22.4875 9.38357 22.4057C9.23704 22.3239 9.12218 22.1954 9.05735 22.0406C8.99252 21.8858 8.98146 21.7138 9.02595 21.552L11.018 14.25H3.74995C3.60379 14.25 3.46082 14.2073 3.33861 14.1271C3.2164 14.0469 3.12028 13.9328 3.06206 13.7987C3.00384 13.6647 2.98607 13.5165 3.01092 13.3725C3.03578 13.2284 3.10217 13.0948 3.20195 12.988L13.702 1.738C13.8163 1.61564 13.9683 1.53509 14.1338 1.50917C14.2993 1.48326 14.4687 1.51347 14.615 1.595Z" fill="white"/>
</svg>
