<svg width="28" height="28" viewBox="0 0 28 28" fill="none" xmlns="http://www.w3.org/2000/svg">
  <!-- Magic Wand Stick -->
  <path d="M6 22L17.5 10.5" stroke="currentColor" stroke-width="1.8" stroke-linecap="round"/>
  <path d="M8 20L19.5 8.5" stroke="currentColor" stroke-width="1.8" stroke-linecap="round"/>
  <path d="M6 22C5.5 22.5 4.5 23.5 4 24C3.5 23.5 3.5 23.5 4 23L6 21" stroke="currentColor" stroke-width="1.8" stroke-linejoin="round"/>
  <path d="M17.5 10.5L19.5 8.5" stroke="currentColor" stroke-width="1.8"/>
  <path d="M19.5 8.5L21.5 6.5C22.2 5.8 22.2 4.7 21.5 4C20.8 3.3 19.7 3.3 19 4L17 6" stroke="currentColor" stroke-width="1.8" stroke-linejoin="round"/>
  
  <!-- Sparkles -->
  <!-- Sparkle 1 -->
  <path d="M11 5.5H13.5M12.25 4.25V6.75" stroke="currentColor" stroke-width="1.2" stroke-linecap="round"/>
  <!-- Sparkle 2 -->
  <path d="M4.5 13H7M5.75 11.75V14.25" stroke="currentColor" stroke-width="1.2" stroke-linecap="round"/>
  <!-- Sparkle 3 -->
  <path d="M20.5 17.5H23M21.75 16.25V18.75" stroke="currentColor" stroke-width="1.2" stroke-linecap="round"/>
</svg>
